<svg id="Layer_1" data-name="Layer 1" xmlns="http://www.w3.org/2000/svg" width="345.23" height="40.68" viewBox="0 0 345.23 40.68"><defs><style>.cls-1{fill:#5D2C85}.cls-2{fill:#0071b9}.cls-3{fill:#FFFFFF}</style></defs><title>Alamo-Logos</title><path class="cls-1" d="M38.76 24.08A8.06 8.06 0 0 1 30.7 16v-.12h-2.8c-.91-3.72-4.26-7-8.26-7s-7.35 3.25-8.27 7h-2.8v.13a8.06 8.06 0 0 1-8.06 8.07H0v15.2h39.27V24.07h-.51"/><path class="cls-2" d="M.16 21.45h.35A5.44 5.44 0 0 0 5.95 16v-2.72H9.5a11.34 11.34 0 0 1 10.13-7 11.34 11.34 0 0 1 10.13 7h3.55V16a5.45 5.45 0 0 0 5.44 5.44h.51V0H0v21.45z"/><path class="cls-3" d="M339.16 4.38v7.93c0 1.17-.42 1.25-1.23 1.25h-.28V14c.58 0 1.62-.06 2.51-.06s1.84.06 2.42.06v-.45h-.28c-.71 0-1.23-.13-1.23-1.28V4.38h2.44c1 0 1.07.88 1.1 1.43l.45-.16v-1.2c0-.4.1-.8.16-1.2l-.36-.06c0 .45-.4.46-.8.46h-7.66c-.4 0-.77 0-.89-.43h-.36a8.91 8.91 0 0 1-.09 1.26c0 .43-.12.85-.18 1.26h.45c.22-1.08.27-1.35 1.38-1.35zm-8 2.26a17.55 17.55 0 0 1-.12-2.48c-1.4-.21-2-.74-3.7-.74-3.06 0-5.75 1.93-5.75 5.26 0 3.73 2.48 5.55 5.82 5.55a8.69 8.69 0 0 0 3.4-.67 17 17 0 0 1 .37-2.4l-.41-.06a3 3 0 0 1-3 2.48c-2.81 0-4.07-2.51-4.07-5s1.28-4.51 3.71-4.51c2.23 0 2.91 1.19 3.33 2.63zM313.3 14c.58 0 1.46-.06 2.18-.06s1.63.06 2.35.06v-.45h-.21c-.53 0-1.1-.07-1.1-.84V4.93c0-.77.56-.85 1.1-.85h.21v-.44c-.7 0-1.59.06-2.33.06s-1.62-.06-2.2-.06v.45h.21c.53 0 1.1.07 1.1.85v7.78c0 .77-.56.84-1.1.84h-.21zm-12.24-1.25c0 .55-.51.8-1.05.8h-.27V14c.74 0 1.44-.06 2.15-.06s1.71.06 2.55.06v-.45h-.27c-.68 0-1.22 0-1.22-1.19V9.19h1A41.54 41.54 0 0 0 307 14c.46 0 .94-.06 1.4-.06s1 .06 1.46.06v-.45a1.66 1.66 0 0 1-1.44-.89l-2.54-3.8A2.8 2.8 0 0 0 308 6.25c0-2.11-1.66-2.61-3.54-2.61-.79 0-1.5.06-2.39.06s-1.83-.06-2.3-.06v.45h.23c.46 0 1.05 0 1.05 1.13zM303 4.23a7.45 7.45 0 0 1 .85-.06A2 2 0 0 1 306 6.34c0 1.75-.8 2.32-2.29 2.32H303zm-12.8.15v7.93c0 1.17-.42 1.25-1.23 1.25h-.28V14c.58 0 1.62-.06 2.51-.06s1.84.06 2.42.06v-.45h-.28c-.71 0-1.23-.13-1.23-1.28V4.38h2.44c1 0 1.07.88 1.1 1.43l.45-.16v-1.2c0-.4.1-.8.16-1.2l-.36-.06c0 .45-.4.46-.8.46h-7.66c-.4 0-.77 0-.89-.43h-.36a8.77 8.77 0 0 1-.09 1.26c0 .43-.12.85-.18 1.26h.45c.22-1.08.27-1.35 1.38-1.35zm-8.49 1.38a17.25 17.25 0 0 1-.15-2.12c-.46-.06-1.72-.22-2.14-.22a3 3 0 0 0-3.28 3.07c0 3.58 4.36 2.76 4.36 5.39a1.69 1.69 0 0 1-1.82 1.69c-1.41 0-2.12-1.1-2.3-2.36l-.41.09c.07.76.18 1.5.25 2.26a5.29 5.29 0 0 0 2.36.67c1.9 0 3.59-1.07 3.59-3.12 0-3.56-4.46-2.82-4.46-5.29a1.69 1.69 0 0 1 1.83-1.87 1.91 1.91 0 0 1 1.75 1.89zM267.6 14c.58 0 1.46-.06 2.18-.06s1.64.06 2.35.06v-.45h-.21c-.54 0-1.1-.07-1.1-.84V4.93c0-.77.56-.85 1.1-.85h.21v-.44c-.7 0-1.59.06-2.33.06s-1.62-.06-2.2-.06v.45h.21c.54 0 1.1.07 1.1.85v7.78c0 .77-.56.84-1.1.84h-.21zm-14.45 0c.39 0 1.44-.06 2.45-.06s2 0 2.7.06a5.22 5.22 0 0 0 5.51-5.21c0-3.1-2.24-5.15-5.9-5.15-.64 0-1.44.06-2.39.06s-1.93-.06-2.38-.06v.45h.21c.53 0 1.1.07 1.1.85v7.78c0 .77-.57.84-1.1.84h-.21zm3.21-9.76c.33 0 .67-.07 1-.07 2.38 0 4.37 1 4.37 4.9 0 2.29-1.31 4.4-3.83 4.4-1.07 0-1.54-.13-1.54-1.17zm-14.63 1.52a17.45 17.45 0 0 1-.15-2.12c-.46-.06-1.72-.22-2.14-.22a3 3 0 0 0-3.28 3.07c0 3.58 4.36 2.76 4.36 5.39a1.69 1.69 0 0 1-1.82 1.69c-1.41 0-2.12-1.1-2.3-2.36l-.41.09c.07.76.18 1.5.25 2.26a5.29 5.29 0 0 0 2.36.67c1.9 0 3.59-1.07 3.59-3.12 0-3.56-4.46-2.82-4.46-5.29a1.69 1.69 0 0 1 1.83-1.87 1.91 1.91 0 0 1 1.75 1.89zM223.62 14c.85 0 2.61-.06 4-.06s3 .06 4 .06c.13-.79.31-1.57.51-2.36l-.42-.1c-.45 1.69-1.23 1.81-3 1.81-1 0-1.81 0-1.81-1V8.92h1.78c1 0 1.07.58 1.16 1.47l.45-.09V6.87h-.45c-.09.8-.28 1.31-1.17 1.31h-1.77V4.29h2.06c1.56 0 1.74.77 1.81 1.74l.44-.12c0-.65-.06-1.63 0-2.27-1 0-2.55.06-3.8.06s-2.79-.06-3.7-.06v.45h.21c.53 0 1.1.07 1.1.85v7.78c0 .77-.56.84-1.1.84h-.21zm-4.26-7.5a13.78 13.78 0 0 1-.19-2.5 8.1 8.1 0 0 1-1.68-.28 8.8 8.8 0 0 0-2.14-.27c-3 0-5.94 1.8-5.94 5.24s2.51 5.57 5.84 5.57a14.73 14.73 0 0 0 4.14-.64v-.27l-.34-.19v-2.29c0-.52.28-.76.8-.76h.19v-.44c-.67 0-1.32.06-2 .06s-1.49 0-2.23-.06v.45h.19c.55 0 1.13.15 1.13.76v2.42a3.24 3.24 0 0 1-1.65.28c-2.84 0-4-2.61-4-5.06s1.31-4.44 4-4.44c1.74 0 3 .64 3.45 2.47zM197 14c.85 0 2.61-.06 4-.06s3 .06 4 .06c.13-.79.31-1.57.51-2.36l-.42-.1c-.45 1.69-1.23 1.81-3 1.81-1 0-1.81 0-1.81-1V8.92H202c1 0 1.07.58 1.16 1.47l.45-.09V6.87h-.45c-.09.8-.28 1.31-1.17 1.31h-1.77V4.29h2.06c1.56 0 1.74.77 1.81 1.74l.45-.12c0-.65-.06-1.63 0-2.27-1 0-2.55.06-3.8.06S198 3.64 197 3.64v.45h.21c.54 0 1.1.07 1.1.85v7.78c0 .77-.56.84-1.1.84H197zm-8.76-9.12c0-.79.45-.8 1-.8h.37v-.44c-.76 0-1.5.06-2.26.06s-1.56-.06-2.35-.06v.45h.21c.53 0 1.11.07 1.11.85v7.63c0 .92-.58 1-1.11 1H185V14c1.31 0 2.61-.06 3.92-.06s2.61.06 3.92.06c.18-.85.39-1.68.55-2.52H193a3.31 3.31 0 0 1-.46 1.07 2.13 2.13 0 0 1-1.42.8 10.88 10.88 0 0 1-2 0c-.47-.06-.89-.24-.89-.83zm-12 0c0-.79.45-.8 1-.8h.37v-.44c-.76 0-1.5.06-2.26.06s-1.56-.06-2.35-.06v.45h.21c.53 0 1.11.07 1.11.85v7.63c0 .92-.58 1-1.11 1H173V14c1.31 0 2.61-.06 3.92-.06s2.61.06 3.92.06c.18-.85.39-1.68.55-2.52H181a3.32 3.32 0 0 1-.46 1.07 2.13 2.13 0 0 1-1.43.8 10.88 10.88 0 0 1-2 0c-.47-.06-.89-.24-.89-.83zM160 8.38c0-2 .77-4.31 3.37-4.31S167 6.7 167 8.86s-.51 4.71-3.39 4.71c-2.4 0-3.62-2.54-3.62-5.2m-2.08.52a5.25 5.25 0 0 0 5.55 5.33 5.45 5.45 0 0 0 5.61-5.69c0-3.16-2.53-5.12-5.69-5.12a5.4 5.4 0 0 0-5.48 5.48m-4.1-2.25a17.42 17.42 0 0 1-.12-2.48c-1.4-.21-2-.74-3.7-.74-3.06 0-5.75 1.93-5.75 5.26 0 3.73 2.48 5.55 5.82 5.55a8.69 8.69 0 0 0 3.4-.67 16.69 16.69 0 0 1 .37-2.4l-.42-.06a3 3 0 0 1-3 2.48c-2.81 0-4.07-2.51-4.07-5s1.28-4.51 3.71-4.51c2.23 0 2.91 1.19 3.33 2.63zm-29.94 1.74c0-2 .77-4.31 3.37-4.31s3.64 2.63 3.64 4.8-.51 4.71-3.39 4.71c-2.41 0-3.62-2.54-3.62-5.2m-2.08.52a5.25 5.25 0 0 0 5.55 5.33 5.45 5.45 0 0 0 5.61-5.69c0-3.16-2.52-5.12-5.69-5.12a5.4 5.4 0 0 0-5.48 5.48m-14.34-5.26c-.44 0-.89.06-1.34.06-.61 0-1.2-.06-1.81-.06v.45h.19c.65 0 1.29.28 1.29 1.11a26 26 0 0 1-.18 2.61l-.45 4.13c-.13 1.07-.18 1.57-1.35 1.62h-.21V14c.58 0 1.17-.06 1.75-.06s1.35 0 2 .06v-.45h-.18a2.07 2.07 0 0 1-1-.16c-.19-.14-.31-.37-.31-.85l.59-6.54 3.59 8.2h.36l3.79-8.36.42 6.27v.73c0 .65-.51.65-1.28.7V14c.82 0 1.63-.06 2.45-.06s1.44 0 2.14.06v-.45c-.89 0-1.26-.09-1.32-.83l-.56-6.8a9 9 0 0 1-.01-1.15c0-.65.93-.68 1.38-.68h.13v-.45c-.52 0-1.05.06-1.57.06s-1.07-.06-1.52-.06l-3.52 7.77zM95.82 9.5H93l1.38-4.2zm-3.06.83h3.37l.58 1.72a4.88 4.88 0 0 1 .3 1.07c0 .37-.58.43-.92.43h-.16V14c.76 0 1.5-.06 2.23-.06s1.38 0 2 .06v-.45h-.09a.94.94 0 0 1-1-.59c-.19-.44-.37-1-.55-1.51l-2.67-7.77-.13-.37h-.11a.34.34 0 0 0-.12 0 7.82 7.82 0 0 1-1.35.64 12.53 12.53 0 0 1-.55 1.84l-2.38 6.82a1.35 1.35 0 0 1-1.29 1h-.09V14c.54 0 1.07-.06 1.6-.06s1.2 0 1.8.06v-.45h-.16c-.49 0-1.11-.07-1.11-.52a5.88 5.88 0 0 1 .33-1.16zM81.18 4.88c0-.79.44-.8 1-.8h.37v-.44c-.76 0-1.5.06-2.26.06s-1.55-.06-2.29-.06v.45h.21c.54 0 1.11.07 1.11.85v7.63c0 .92-.58 1-1.11 1H78V14c1.31 0 2.61-.06 3.92-.06s2.61.06 3.92.06c.18-.85.39-1.68.55-2.52h-.43a3.35 3.35 0 0 1-.46 1.07 2.13 2.13 0 0 1-1.43.8 10.89 10.89 0 0 1-2 0c-.47-.06-.89-.24-.89-.83zM70.08 9.5h-2.77l1.38-4.2zm-3.08.84h3.37l.63 1.72a4.8 4.8 0 0 1 .3 1.07c0 .37-.58.43-.92.43h-.16V14c.76 0 1.5-.06 2.23-.06s1.38 0 2 .06v-.45h-.09a.94.94 0 0 1-1-.59c-.19-.44-.37-1-.55-1.51l-2.7-7.77-.11-.37a.1.1 0 0 0-.1 0 .36.36 0 0 0-.12 0 7.75 7.75 0 0 1-1.35.64 12.29 12.29 0 0 1-.55 1.84l-2.38 6.82a1.35 1.35 0 0 1-1.29 1h-.11V14c.54 0 1.07-.06 1.6-.06s1.2 0 1.8.06v-.45h-.16c-.49 0-1.11-.07-1.11-.52a6 6 0 0 1 .33-1.16zm208.27 19.53c.22-1.25.91-2.42 2.14-2.42a1.57 1.57 0 0 1 1.41 1.67c0 .73-.16.74-1.25.74zm5.48 3.61a3.06 3.06 0 0 1-2.4 1.09c-2.18 0-3.12-2-3.12-4.09h5.44l.24-.22c0-2-1.09-3.53-3.16-3.53-2.74 0-4.45 2.48-4.45 5 0 2.3 1.37 4.64 3.91 4.64a4.57 4.57 0 0 0 3.87-2.52zm-15.64-3.73c0-1 .28-2.42 1.59-2.42s1.65 1.85 1.65 2.84-.28 2.24-1.51 2.24-1.73-1.65-1.73-2.66m5.08 8.08c0 1.39-1.87 2.12-3.23 2.12s-2.58-.44-2.58-1.79c0-1.53 2.06-1.77 3.3-1.77 1.09 0 2.5.14 2.5 1.45M263.07 34a1.91 1.91 0 0 0 2 2.14c-1.49.63-2.38 1-2.38 2.36 0 1.49 2 2.16 3.87 2.16 2.14 0 5.24-1.09 5.24-4.19 0-1.55-1.25-2.18-2.64-2.18-.89 0-1.77.1-2.66.1s-1.59 0-1.53-1l.49-.4a4.77 4.77 0 0 0 1.31.18c1.91 0 3.81-1.25 3.81-3.18a3.78 3.78 0 0 0-.32-1.57h1.55v-1h-1.75a2.21 2.21 0 0 1-.91-.12 5.28 5.28 0 0 0-2.46-.52c-1.86 0-3.87 1.19-3.87 3.23a3.1 3.1 0 0 0 2 2.82zm-7.23-4.11c.22-1.25.91-2.42 2.14-2.42a1.57 1.57 0 0 1 1.41 1.67c0 .73-.16.74-1.25.74zm5.48 3.61a3.06 3.06 0 0 1-2.4 1.09c-2.18 0-3.13-2-3.13-4.09h5.44l.24-.22c0-2-1.09-3.53-3.16-3.53-2.74 0-4.46 2.48-4.46 5 0 2.3 1.37 4.64 3.91 4.64a4.58 4.58 0 0 0 3.87-2.52zm-12.39 1.37c0 .63-.54.63-1.19.63v.6c.74 0 1.57-.08 2.4-.08s1.55 0 2.32.08v-.6h-.22c-.57 0-1 0-1-.62v-14l-.22-.18a19.93 19.93 0 0 1-3.22 1.19v.48l.67.26c.46.18.52.36.52.81zm-5.8 0c0 .63-.54.63-1.19.63v.6c.75 0 1.57-.08 2.4-.08s1.55 0 2.32.08v-.6h-.22c-.57 0-1 0-1-.62v-14l-.22-.18a19.94 19.94 0 0 1-3.23 1.19v.48l.66.26c.46.18.53.36.53.81zm-12.28-3.31a4.65 4.65 0 0 0 4.82 4.84 4.88 4.88 0 0 0 4.86-5 4.51 4.51 0 0 0-4.86-4.7 4.68 4.68 0 0 0-4.82 4.82m4.78-4.09c2 0 2.44 3 2.44 4.46 0 1.82-.4 3.75-2.28 3.75s-2.48-2.36-2.48-4.05.18-4.15 2.32-4.15m-6.49-1.37a23.59 23.59 0 0 1-.16-3.37c-1.89-.28-2.66-1-5-1-4.15 0-7.8 2.62-7.8 7.13 0 5.06 3.37 7.54 7.9 7.54a11.8 11.8 0 0 0 4.61-.91 22.77 22.77 0 0 1 .5-3.27l-.57-.08a4.11 4.11 0 0 1-4.11 3.37c-3.81 0-5.52-3.41-5.52-6.77 0-3.53 1.73-6.13 5-6.13 3 0 3.95 1.61 4.51 3.57zm-23.76 7.86a2.27 2.27 0 0 1-1.74 1.07 1.14 1.14 0 0 1-1.23-1.31c0-1.41 1.85-1.79 3-2.16zm0-3.08l-2.5.87c-1.43.52-2.72 1-2.72 2.58a2 2 0 0 0 2.2 2.08 4.38 4.38 0 0 0 3.08-1.59c.08.93.56 1.59 1.53 1.59a2.61 2.61 0 0 0 2.12-1.27l-.26-.36a1 1 0 0 1-.56.26c-.57 0-.62-.63-.62-1.49v-4.11a2.42 2.42 0 0 0-2.72-2.68 2.14 2.14 0 0 0-1.21.28c-.77.44-1.51.83-2.18 1.17a1.9 1.9 0 0 0-1.11 1.69c0 .3.16.46.38.46s1.39-.26 1.43-.81c.08-1.13.38-1.43 1.55-1.43a1.46 1.46 0 0 1 1.59 1.63zM198.62 27h-2.4v-2.09l-.24-.12a11.61 11.61 0 0 1-3.23 2.88v.49H194v6.15a1.85 1.85 0 0 0 2 2.08 3.46 3.46 0 0 0 2.74-1.63l-.26-.34a2 2 0 0 1-1.19.36 1 1 0 0 1-1.07-1.09v-5.53h2.4zm-7.84 2.32a12.65 12.65 0 0 1 0-2.14 6.48 6.48 0 0 0-2.38-.48 2.91 2.91 0 0 0-3.22 2.88c0 3.1 4.05 2.78 4.05 4.72a1.36 1.36 0 0 1-1.51 1.33 2.14 2.14 0 0 1-2-2.16l-.56.12.18 2.24a6.67 6.67 0 0 0 2.38.52c1.67 0 3.43-.79 3.43-3 0-3.06-4.17-2.56-4.17-4.76a1.26 1.26 0 0 1 1.37-1.21c1.29 0 1.71.87 1.81 2zm-8.3-6.67a1.23 1.23 0 1 0-2.46 0 1.23 1.23 0 0 0 2.46 0m-.1 4.23l-.22-.18c-.44.18-.93.44-1.39.61s-1.21.42-1.83.58v.48l.71.2c.44.12.48.24.48.56v5.7c0 .6-.46.6-1 .6h-.14v.6c.79 0 1.59-.08 2.42-.08s1.53 0 2.3.08v-.6h-.3c-.5 0-1 0-1-.48zM170.7 22c-.58 0-2 .08-3 .08s-2.08-.08-3.1-.08v.61h.2a1.51 1.51 0 0 1 1.69 1.15l5.12 12.62h.75c.24-.67.56-1.33.83-2 1.31-3.35 4.25-10.78 4.41-11.06a1.05 1.05 0 0 1 1.07-.71h.2V22c-.58 0-1.23.08-1.85.08-.87 0-1.63-.08-2.34-.08v.61h.32c.69 0 1.29.08 1.29.66a3.18 3.18 0 0 1-.26 1.13l-3.2 8.38-3.45-9a2.68 2.68 0 0 1-.18-.65c0-.26.3-.56 1-.56h.46zM158 27h-2.4v-2.09l-.24-.12a11.59 11.59 0 0 1-3.22 2.88v.49h1.21v6.15a1.85 1.85 0 0 0 2 2.08 3.46 3.46 0 0 0 2.74-1.63l-.26-.34a2 2 0 0 1-1.19.36 1 1 0 0 1-1.07-1.09v-5.53H158zm-7.84 2.32a12.54 12.54 0 0 1 0-2.14 6.49 6.49 0 0 0-2.38-.48 2.91 2.91 0 0 0-3.22 2.88c0 3.1 4.05 2.78 4.05 4.72a1.36 1.36 0 0 1-1.51 1.33 2.14 2.14 0 0 1-2-2.16l-.56.12.18 2.24a6.66 6.66 0 0 0 2.38.52c1.67 0 3.43-.79 3.43-3 0-3.06-4.17-2.56-4.17-4.76a1.26 1.26 0 0 1 1.37-1.21c1.29 0 1.71.87 1.81 2zm-12.9.52c.22-1.25.91-2.42 2.14-2.42a1.57 1.57 0 0 1 1.41 1.67c0 .73-.16.74-1.25.74zm5.48 3.61a3.06 3.06 0 0 1-2.4 1.09c-2.18 0-3.12-2-3.12-4.09h5.44l.24-.22c0-2-1.09-3.53-3.16-3.53-2.74 0-4.45 2.48-4.45 5 0 2.3 1.37 4.64 3.91 4.64a4.58 4.58 0 0 0 3.87-2.52zm-16.14-3.09l2.46 6h.56l3-7.38c.26-.62.5-1.37 1.29-1.37h.16V27c-.52 0-1 .08-1.55.08s-1.19 0-1.79-.08v.6h.27c.5 0 .91 0 .91.52a2.7 2.7 0 0 1-.14.76l-1.59 4.13-1.77-4.41a1.83 1.83 0 0 1-.18-.73c0-.26.48-.28.81-.28h.2V27c-.71 0-1.43.08-2.14.08-.87 0-1.73 0-2.6-.08v.6h.22a1.05 1.05 0 0 1 1 .4l.56 1.27-1.71 3.87-1.89-4.76a1 1 0 0 1-.12-.59c.06-.24.48-.2.75-.2h.18V27c-.73 0-1.43.08-2.16.08s-1.55 0-2.34-.08v.6h.14c.83 0 .89.28 1.17 1l3.12 7.72h.57zm-15.44-1.45a3.86 3.86 0 0 1 1.85-.68c.91 0 1.53.46 1.53 1.69v5c0 .52-.58.52-1 .52h-.2v.6c.81 0 1.59-.08 2.4-.08s1.51 0 2.28.08v-.6h-.24c-.48 0-1 0-1-.56v-5.55a2.27 2.27 0 0 0-2.5-2.6 5.93 5.93 0 0 0-3.14 1.47v-7.34l-.22-.18a19.85 19.85 0 0 1-3.22 1.19v.48l.66.26c.46.18.52.36.52.81v11.43c0 .63-.55.63-1.19.63v.6c.79 0 1.59-.08 2.42-.08s1.53 0 2.3.08v-.6h-.3c-.5 0-1 0-1-.48zM106.65 27h-2.4v-2.09l-.24-.12a11.59 11.59 0 0 1-3.22 2.88v.49H102v6.15a1.85 1.85 0 0 0 2 2.08 3.46 3.46 0 0 0 2.74-1.63l-.26-.34a2 2 0 0 1-1.19.36 1 1 0 0 1-1.07-1.09v-5.53h2.4zm-10.44 2.71c0-1 .62-1.37 1.11-1.37s.62.76 1.41.76a1.1 1.1 0 0 0 1.13-1.19 1.14 1.14 0 0 0-1.29-1.19 3.1 3.1 0 0 0-2.32 1.51v-1.38l-.25-.12a14.88 14.88 0 0 1-3.3 1.19v.48l.64.12c.51.08.63.28.63.95V35c0 .44-.42.52-1.11.52h-.2v.6c.85 0 1.67-.08 2.52-.08s1.89.06 2.84.08v-.6h-.3c-.95 0-1.49 0-1.49-.46zm-14.53 1.84a4.65 4.65 0 0 0 4.82 4.84 4.88 4.88 0 0 0 4.86-5 4.51 4.51 0 0 0-4.86-4.7 4.68 4.68 0 0 0-4.82 4.82m4.78-4.09c2 0 2.44 3 2.44 4.46 0 1.82-.4 3.75-2.28 3.75s-2.48-2.36-2.48-4.05.18-4.15 2.32-4.15M68.31 22c-.61 0-1.19.08-1.79.08-.77 0-1.55-.08-2.32-.08v.61h.26a1.81 1.81 0 0 1 1.83 1.81v8.49c0 1.61-.42 2.56-1.82 2.56h-.27v.6c.91 0 1.83-.08 2.74-.08s1.73.08 2.6.08v-.6h-.34c-1.55 0-1.9-.6-1.9-2.36v-8.3l10.39 11.57h.76a13.26 13.26 0 0 1-.12-2v-9.2c0-2.4.95-2.56 1.79-2.56h.3V22c-.83 0-1.65.08-2.48.08S76.07 22 75.13 22v.61h.44a1.66 1.66 0 0 1 1.75 1.89v7.56zM51.25 0h.7v39.27h-.7z"/></svg>